<?xml version="1.0" encoding="iso-8859-1"?>
<!-- Generator: Adobe Illustrator 19.0.0, SVG Export Plug-In . SVG Version: 6.00 Build 0)  -->
<svg version="1.1" id="Capa_1" xmlns="http://www.w3.org/2000/svg" xmlns:xlink="http://www.w3.org/1999/xlink" x="0px" y="0px"
	 viewBox="0 0 440 440" style="enable-background:new 0 0 440 440;" xml:space="preserve">
<g>
	<g>
		<g>
			<path d="M424,392V144c0-4.418-3.582-8-8-8h-80c-4.418,0-8,3.582-8,8v248h-32V256c0-4.418-3.582-8-8-8h-80c-4.418,0-8,3.582-8,8
				v136h-32v-72c0-4.418-3.582-8-8-8H80c-4.418,0-8,3.582-8,8v72H48V0H32v72H8v16h24v48H8v16h24v48H8v16h24v48H8v16h24v48H8v16h24
				v56c0,4.418,3.582,8,8,8h400v-16H424z M152,392H88v-64h64V392z M280,392h-64V264h64V392z M408,392h-64V152h64V392z"/>
			<path d="M83.312,280H136c2.122,0,4.156-0.844,5.656-2.344L219.312,200H256c2.122,0,4.156-0.844,5.656-2.344L368,91.312V120h16V72
				c0-4.418-3.582-8-8-8h-48v16h28.688l-104,104H216c-2.122,0-4.156,0.844-5.656,2.344L132.688,264H80
				c-2.122,0-4.156,0.844-5.656,2.344l-24,24l11.312,11.312L83.312,280z"/>
			<rect y="424" width="48" height="16"/>
			<rect x="96" y="424" width="48" height="16"/>
			<rect x="224" y="424" width="48" height="16"/>
			<rect x="360" y="424" width="48" height="16"/>
		</g>
	</g>
</g>
<g>
</g>
<g>
</g>
<g>
</g>
<g>
</g>
<g>
</g>
<g>
</g>
<g>
</g>
<g>
</g>
<g>
</g>
<g>
</g>
<g>
</g>
<g>
</g>
<g>
</g>
<g>
</g>
<g>
</g>
</svg>
