<?xml version="1.0" encoding="iso-8859-1"?>
<!-- Generator: Adobe Illustrator 19.0.0, SVG Export Plug-In . SVG Version: 6.00 Build 0)  -->
<svg version="1.1" id="Capa_1" xmlns="http://www.w3.org/2000/svg" xmlns:xlink="http://www.w3.org/1999/xlink" x="0px" y="0px"
	 viewBox="0 0 480 480" style="enable-background:new 0 0 480 480;" xml:space="preserve">
<g>
	<g>
		<path d="M456,0H96c-4.418,0-8,3.582-8,8v376H24c-4.418,0-8,3.582-8,8v16c0.044,39.746,32.254,71.956,72,72h352
			c13.255,0,24-10.745,24-24V8C464,3.582,460.418,0,456,0z M88,464c-30.913-0.035-55.965-25.087-56-56v-8h336v8
			c0.006,2.636,0.159,5.269,0.456,7.888c0.088,0.856,0.264,1.68,0.384,2.528c0.256,1.728,0.52,3.44,0.896,5.12
			c0.216,0.976,0.488,1.92,0.744,2.88c0.4,1.52,0.8,3.024,1.32,4.496c0.328,0.976,0.696,1.936,1.064,2.896
			c0.533,1.408,1.12,2.797,1.76,4.168c0.424,0.936,0.864,1.856,1.328,2.76c0.696,1.36,1.448,2.672,2.224,4
			c0.504,0.848,1,1.704,1.536,2.528c0.88,1.344,1.832,2.64,2.8,3.928c0.528,0.696,1.024,1.424,1.6,2.104
			c1.28,1.6,2.648,3.088,4.056,4.552c0.312,0.32,0.584,0.672,0.896,0.984c1.742,1.742,3.571,3.395,5.48,4.952
			c0.072,0.048,0.152,0.144,0.248,0.216H88z M448,456c0,4.418-3.582,8-8,8c-30.913-0.035-55.965-25.087-56-56v-16
			c0-4.418-3.582-8-8-8H104V16h344V456z"/>
	</g>
</g>
<g>
	<g>
		<path d="M376,168v-16h-16c-2.122,0-4.156,0.844-5.656,2.344l-16.232,16.224C320.323,153.522,296.638,144.004,272,144
			c-52.918-0.103-95.899,42.712-96.002,95.63c-0.041,20.85,6.721,41.143,19.258,57.802L180.688,312H168v16h16
			c2.122,0,4.156-0.844,5.656-2.344l16.232-16.224c38.224,36.614,98.892,35.31,135.507-2.914
			c32.501-33.93,35.613-86.417,7.349-123.95L363.312,168H376z M217.192,298.12l20.464-20.464l-11.312-11.312l-19.672,19.672
			c-25.478-36.005-16.944-85.847,19.06-111.325c11.302-7.998,24.489-12.92,38.268-14.283V240c0,2.122,0.844,4.156,2.344,5.656
			l56.248,56.248C291.532,327.406,246.343,325.783,217.192,298.12z M352,240c0.015,18.452-6.382,36.335-18.096,50.592L280,236.688
			v-76.28c17.549,1.78,34.012,9.331,46.808,21.472l-20.464,20.464l11.312,11.312l19.672-19.672
			C346.875,207.429,352.002,223.511,352,240z"/>
	</g>
</g>
<g>
	<g>
		<rect x="392" y="128" width="32" height="16"/>
	</g>
</g>
<g>
	<g>
		<rect x="392" y="160" width="32" height="16"/>
	</g>
</g>
<g>
	<g>
		<rect x="128" y="296" width="16" height="16"/>
	</g>
</g>
<g>
	<g>
		<rect x="128" y="328" width="32" height="16"/>
	</g>
</g>
<g>
	<g>
		<rect x="152" y="48" width="200" height="16"/>
	</g>
</g>
<g>
	<g>
		<rect x="152" y="80" width="200" height="16"/>
	</g>
</g>
<g>
</g>
<g>
</g>
<g>
</g>
<g>
</g>
<g>
</g>
<g>
</g>
<g>
</g>
<g>
</g>
<g>
</g>
<g>
</g>
<g>
</g>
<g>
</g>
<g>
</g>
<g>
</g>
<g>
</g>
</svg>
